<?xml version="1.0" encoding="utf-8"?>
<!-- Generator: Adobe Illustrator 18.0.0, SVG Export Plug-In . SVG Version: 6.00 Build 0)  -->
<!DOCTYPE svg PUBLIC "-//W3C//DTD SVG 1.1//EN" "http://www.w3.org/Graphics/SVG/1.1/DTD/svg11.dtd">
<svg version="1.1" id="Layer_1" xmlns="http://www.w3.org/2000/svg" xmlns:xlink="http://www.w3.org/1999/xlink" x="0px" y="0px"
	 viewBox="0 0 500 500" enable-background="new 0 0 500 500" xml:space="preserve">
<g>
	<g>
		<g>
			<g>
				<g>
					<path fill="#255875" d="M464.7,248.4c0,2,0.7,1.3,0.8,1.6C465.2,246.7,464.5,248.5,464.7,248.4z"/>
					<polygon fill="#255875" points="460.4,215.8 460.8,216.3 459.2,211.7 					"/>
					<path fill="#255875" d="M453.4,185.9c-0.1,1.6,0.7,4.2,1.6,7.2c0.2,0.7,0.5,1.5,0.8,2.2l0.4,1.1c0.1,0.4,0.2,0.8,0.3,1.2
						c0.4,1.6,0.8,3,0.9,4.4l-0.1,0.9l1.5,2.2c-0.4-1.6-0.9-3.3-1.4-5.1c-0.5-1.8-0.9-3.6-1.6-5.2
						C454.9,191.4,453.9,188.2,453.4,185.9z"/>
					<path fill="#255875" d="M450.3,169.6c-0.1,1.1-1.7-3.2,1.3,3.7c-0.1-0.4-0.1-0.5-0.2-0.7C451.1,171.9,450.8,171.1,450.3,169.6z
						"/>
					<path fill="#255875" d="M451.4,172.6C452.6,175.6,450.9,170.4,451.4,172.6L451.4,172.6z"/>
					<path fill="#255875" d="M445.3,158.8l2.2,3.8c-0.1-0.9-1.7-4.4-0.9-3.2C444.5,155.3,444.6,156.3,445.3,158.8z"/>
					<path fill="#255875" d="M442.8,155.4c0,0,0.3,0.5,0.6,0.9c0.3,0.5,0.6,0.9,0.6,0.9C443.8,157,443.6,156.4,442.8,155.4z"/>
					<path fill="#255875" d="M446.2,161.6l-2.3-4.2c0.1,0.7-0.2,0.9,1,1.9C444.4,159.1,445.1,159.8,446.2,161.6z"/>
					<path fill="#255875" d="M447.1,164.1c0.2,0.6,0.4,1.2,0.6,1.7s0.3,1,0.3,1.3c0.1,0.3,0,0.3-0.2,0.1c-0.2-0.2-0.4-0.8-1-1.7
						c0.4,0.9,0.8,1.7,1.1,2.4c0.3,0.7,0.6,1.2,0.8,1.6c0.4,0.8,0.7,1.1,0.7,0.9s-0.1-0.8-0.5-1.9
						C448.6,167.4,448,165.9,447.1,164.1z"/>
					<path fill="#255875" d="M451.7,184.8c0,0,0.2,0.8,0.3,1.6c0.1,0.4,0.2,0.8,0.2,1.1c0.1,0.3,0.1,0.5,0.1,0.5l1.1,2.5
						c-0.3-0.6-0.6-2.1-0.9-3.4C452.2,185.8,451.8,184.7,451.7,184.8z"/>
					<path fill="#255875" d="M433,134.9c-0.3-0.1,0.2,1.6,0.1,2c0,0,0.1,0.2,0.3,0.4c0.2,0.2,0.4,0.6,0.7,0.9
						c0.4,0.7,0.9,1.3,0.9,1.3C434.4,138,432.8,135.3,433,134.9z"/>
					<path fill="#255875" d="M433.1,136.9l-2.9-3.8C432.4,136.8,433,137.3,433.1,136.9z"/>
					<path fill="#255875" d="M441.2,155.4c0,0,0.3,0.4,0.7,1c0.4,0.6,0.9,1.4,1.4,2.3c1,1.7,2,3.3,2,3.3s-1.2-2-2.3-4
						c-0.6-1-1.2-2-1.7-2.7c-0.4-0.7-0.8-1.2-0.8-1.2L441.2,155.4z"/>
					<path fill="#255875" d="M422.8,119.9c0,0,0.1,0.1,0.3,0.3c0.2,0.2,0.4,0.4,0.7,0.6c0.5,0.4,1,0.9,1,0.9s-0.9-0.8-1.8-1.7
						c-0.9-0.8-1.8-1.6-1.8-1.6L422.8,119.9z"/>
					<path fill="#255875" d="M415.2,110.6c1.7,1.2-1.2-2.6,0.4-1.2c-1.1-1.2-2.2-2.3-3.3-3.3c-0.6-0.5-1.1-0.9-1.6-1.4
						c-0.5-0.4-1-0.9-1.5-1.3c0.5,0.4,1,0.9,1.4,1.4c0.5,0.5,0.9,1.1,1.4,1.7C413.1,107.7,414.1,109,415.2,110.6z"/>
					<path fill="#255875" d="M405.9,100.7c1,0.9,2.1,1.7,3.3,2.7C408.2,102.4,407.1,101.6,405.9,100.7z"/>
					<path fill="#255875" d="M425.8,126.4c-0.1-0.4-0.2-1.2-1.6-3.4l0.5,1.9C425.1,125.4,425.4,125.9,425.8,126.4z"/>
					<path fill="#255875" d="M424.7,125L424.7,125c-1.2-1.7-1.9-2.9-2.3-3.3C422.7,122.1,423.4,123.1,424.7,125z"/>
					<path fill="#255875" d="M426.1,126.8c-0.1-0.2-0.2-0.2-0.3-0.4C425.8,126.6,425.9,126.7,426.1,126.8z"/>
					<path fill="#255875" d="M436,144.2c-1.7-2.2-4.9-6.9-2.7-1.8C434.7,143.8,433.4,140.8,436,144.2z"/>
					<path fill="#255875" d="M426.7,129.2c0,0,0.2,0.3,0.4,0.7c0.2,0.4,0.6,0.9,0.9,1.5c0.7,1.1,1.3,2.2,1.3,2.2
						c0.1-0.2-0.2-1.1,0.8-0.1c0,0-0.8-1.1-1.7-2.1c-0.4-0.6-0.8-1.1-1.2-1.4C426.9,129.4,426.7,129.2,426.7,129.2z"/>
					<polygon fill="#255875" points="425.1,127.3 426.7,129.2 425.7,127.7 					"/>
					<path fill="#255875" d="M411.3,107.6c-0.8-0.7-1.6-1.5-2.4-2.4c-0.8-0.8-1.7-1.7-2.7-2.7c0.5,0.6,0.9,1.1,1.4,1.6
						c0.5,0.6,1,1.1,1.4,1.7c0.9,1.1,1.8,2.2,2.8,3.3C412.2,109.2,413.3,109.9,411.3,107.6z"/>
					<path fill="#255875" d="M418,115.9c-0.1-0.1-0.2-0.3-0.3-0.3C417.8,115.8,417.9,116,418,115.9z"/>
					<path fill="#255875" d="M386.9,84.3c0.1,0.1,0.2,0.2,0.2,0.4c0.1,0,0.1,0,0.2-0.1L386.9,84.3z"/>
					<path fill="#255875" d="M412,109.5c1.3,1.7,2.3,2.6,3.3,3.4c-1.1-1.2-2.3-2.4-3.5-3.8C411.6,108.9,411.6,109,412,109.5z"/>
					<path fill="#255875" d="M400.6,95.7c0.3,0.4,0.7,0.9,1.2,1.4c0.4,0.5,0.8,1,1.2,1.6c-0.3-0.5-0.8-1.2-1.2-1.8
						C401.2,96.2,400.8,95.7,400.6,95.7z"/>
					<path fill="#255875" d="M417.4,114.8c0.1,0.1,0.2,0.2,0.2,0.2C417.3,114.4,417.3,114.6,417.4,114.8z"/>
					<path fill="#255875" d="M417.4,114.8c-0.8-0.8-1.4-1.4-2.1-2c0.8,1,1.7,1.9,2.4,2.7C417.6,115.3,417.4,115.1,417.4,114.8z"/>
					<path fill="#255875" d="M377.9,82.9c0.3-0.2,1.7,0.5,3.4,1.7c0.8,0.6,1.8,1.3,2.7,2.1c0.9,0.8,1.8,1.7,2.6,2.6
						c3.9,2.7,3-0.9,0.6-4.6c-0.3,0.2-0.4,0.3-4.6-2.5c0.6,0.7,2.6,2.5,3.9,4c1.3,1.5,2.1,2.5,0.4,1.4c-1.3-1-2.2-1.7-2.8-2.3
						c-0.7-0.6-1.1-0.9-1.4-1.3c-0.6-0.7-0.9-1.2-2-2.3c0.8,1.2-1,0.1-2.9-1c-1-0.6-2-1.1-2.8-1.4s-1.3-0.3-1.2,0.1
						c0,0,0.3,0.2,0.8,0.4c0.4,0.3,1.1,0.7,1.7,1.1c1.2,0.8,2.3,1.6,2.3,1.6C378.6,82.9,376.8,81.8,377.9,82.9z"/>
					<path fill="#255875" d="M394.3,90.9l1.6,1.3c-0.8-0.8-1.4-1.6-2.2-2.4c-0.7-0.8-1.5-1.7-2.5-2.9c-2.8-2-3.5-2.3-3.8-2.2
						c0,0,1.9,1.7,3.8,3.3c0.9,0.8,1.9,1.7,2.6,2.3c0.3,0.3,0.6,0.6,0.8,0.8s0.3,0.3,0.3,0.3L394.3,90.9z"/>
					<path fill="#255875" d="M402.4,98.7c-0.4-0.2-0.9-0.5-1.5-0.8c-0.6-0.3-1.1-0.7-1.6-1c-0.9-0.6-1.4-0.7-0.7,0.7
						c1.1,1,1.8,1.7,2.4,2.2c0.6,0.5,0.9,0.7,1.2,0.9c0.7,0.4,1.1,0.6,2.4,1.8c-6.8-6.8,2.2,1.7-2.3-3.6c1.4,1.3,2.6,2.5,3.7,3.7
						c-1.2-1.3-2.2-2.6-3.2-3.8c0.1,0.1,0.1,0.1,0.1,0.2l0.1,0.1l0,0c0.2,0.4,0.3,0.5,0,0.1c-0.1,0-0.1-0.1-0.2-0.1
						C402.8,98.8,402.6,98.8,402.4,98.7c-1.8-2.1-0.2-0.4,0.5,0.1c0.1,0,0.1,0.1,0.2,0c0,0,0,0,0-0.1c0,0-0.4-0.4-1.1-1.1
						c-0.7-0.6-1.6-1.4-2.5-2.2c-1.8-1.6-3.7-3.2-3.7-3.2c0.7,0.7,1.6,1.6,2.6,2.6c0.6,0.5,1.1,1.1,1.8,1.7c0.3,0.3,0.7,0.6,1.1,1
						C401.7,97.9,402,98.3,402.4,98.7z"/>
					<path fill="#255875" d="M429.3,138.7c-0.1-0.3-0.1-0.3,0-0.3C428.9,137.9,428.7,137.8,429.3,138.7z"/>
					<path fill="#255875" d="M427.6,135.2c0.4,0.6,1,0.9,2.2,2.8c0.9,1.8-0.3,0.2-0.4,0.4c0.9,1.1,2.9,3.8,1-0.1l-0.4-0.5
						c-1.9-3.4-3.8-8.1-3.4-7.6C426.6,131.6,426.7,132.7,427.6,135.2z"/>
					<path fill="#255875" d="M415.7,116.3c0,0-0.3-0.4-0.8-0.9s-1.1-1.3-1.8-2.1c-1.4-1.4-2.8-2.9-2.8-2.9l2.2,3.5l0.2-0.4
						c0.3,0.4,0.7,0.8,0.9,1.1c0.3,0.3,0.4,0.6,0.7,0.8c0.4,0.4,0.6,0.6,0.8,0.8C415.3,116.3,415.4,116.1,415.7,116.3z"/>
					<path fill="#255875" d="M386.5,83.4l1.3,0.1c0,0-0.3-0.2-0.7-0.3c-0.4-0.2-0.9-0.4-1.5-0.7c-1.1-0.5-2.2-1-2.2-1s0.8,0.5,1.5,1
						c0.4,0.2,0.8,0.5,1.1,0.7C386.3,83.3,386.5,83.4,386.5,83.4z"/>
					<path fill="#255875" d="M378.2,77l0.7-0.3c0,0-0.2-0.1-0.4-0.2c-0.2-0.1-0.6-0.3-0.8-0.4c-0.6-0.3-1.2-0.7-1.2-0.7L378.2,77z"
						/>
					<path fill="#255875" d="M70.3,355.8c0,0,0.3,0.4,0.7,0.9c0.2,0.2,0.3,0.4,0.4,0.7c0.1,0.2,0.2,0.3,0.2,0.3
						C71,356.8,70.6,356.2,70.3,355.8z"/>
					<path fill="#255875" d="M62.4,341.2l-0.5-0.2C62.5,341.6,62.7,341.8,62.4,341.2z"/>
					<path fill="#255875" d="M135.4,66.5c-3.2,1.3-7.1,2.7-6.3,3.1h1.3C132.4,68.1,134.1,67.2,135.4,66.5z"/>
					<path fill="#255875" d="M41.6,208.4c0.1-0.3,0.3-0.6,0.4-0.9c-0.1-0.8-0.1-1.7-0.2-2.4C41.8,206.1,41.7,207.2,41.6,208.4z"/>
					<path fill="#255875" d="M44.2,211.3l-1.2,4.3C43.2,214.6,43.7,213.2,44.2,211.3z"/>
					<path fill="#255875" d="M132,420.7c0,0,0.7,0.2,1.3,0.4c0.3,0.1,0.7,0.2,0.9,0.3c0.2,0.1,0.4,0.1,0.4,0.1
						c-0.9-0.6-1.4-0.9-1.8-1.1c-0.4-0.2-0.6-0.3-0.6-0.2C132.1,420.2,132.2,420.6,132,420.7z"/>
					<path fill="#255875" d="M279.7,36.6c-2.9-0.7-5.3-1.1-7.3-1.4C275.9,36.1,278.7,37.1,279.7,36.6z"/>
					<path fill="#255875" d="M60.3,353.9c0.8,1.2,1.3,1.7,1.4,1.6C60.9,354.2,60.3,353.5,60.3,353.9z"/>
					<path fill="#255875" d="M263.8,34.5c0.5,0.1,1.1,0.2,1.6,0.3c1.1,0,2.2,0.1,3.3,0.1c1.2,0.1,2.4,0.1,3.7,0.3
						c-1.3-0.3-2.7-0.6-4.2-0.7C266.7,34.4,265.2,34.4,263.8,34.5z"/>
					<path fill="#255875" d="M421.1,366.1c0.2-0.2,0.3-0.4,0.5-0.6C421.5,365.4,421.3,365.7,421.1,366.1z"/>
					<path fill="#255875" d="M461.9,278.6c-0.1,0.9-0.3,2.6-0.4,4.1C461.6,281.9,461.7,280.7,461.9,278.6z"/>
					<path fill="#255875" d="M342.2,54.9C344.2,55.8,342.6,54.9,342.2,54.9L342.2,54.9z"/>
					<path fill="#255875" d="M350.5,62.3c-0.4-0.2-0.8-0.2-0.9-0.1C349.8,62.2,350.1,62.2,350.5,62.3z"/>
					<path fill="#255875" d="M241.7,38.6c-0.1,0-0.1,0-0.2,0C242.2,38.8,242.1,38.7,241.7,38.6z"/>
					<path fill="#255875" d="M345.1,56.7c-0.7-0.4-1.6-0.9-2.4-1.5C343,55.4,343.7,55.9,345.1,56.7z"/>
					<path fill="#255875" d="M344.8,56.2c0.7,0.4,1.2,0.7,1.7,0.9C346.8,57.1,346.6,56.9,344.8,56.2z"/>
					<path fill="#255875" d="M339.3,53.6c1.2,0.5,2.2,1.1,3.3,1.6c-0.4-0.2-0.6-0.3-0.4-0.3C341.6,54.6,340.7,54.2,339.3,53.6z"/>
					<path fill="#255875" d="M276.5,457.6c0.2,0,0.3,0,0.4,0C279.1,457.1,278.2,457.2,276.5,457.6z"/>
					<path fill="#255875" d="M96.3,108.3c0.1-0.1,0.1-0.1,0.2-0.2C96.4,108.2,96.3,108.3,96.3,108.3L96.3,108.3z"/>
					<path fill="#255875" d="M91.6,114.4c0.7-1.6,1.4-2.7,2.2-3.6c0.7-0.9,1.6-1.7,2.4-2.5c0,0-0.8,0.1-1.7,0.2
						c-0.4,0.1-0.8,0.1-1.2,0.2c-0.3,0.1-0.5,0.1-0.5,0.1L91.6,114.4z"/>
					<path fill="#255875" d="M93.8,387.6l-3.1-4.5c2.6,2.1,4.5,4.1,5.5,5c0.5,0.4,0.8,0.6,0.7,0.4c-0.1-0.2-0.3-0.8-1-1.9
						c-0.6,0.2-1.7-0.6-3.1-2.1c-1.4-1.4-3.2-3.3-4.8-5.4c-1.6-2.1-3.3-4.1-4.7-5.6c-1.3-1.6-2.3-2.5-2.9-2.3l-1.7-3.2
						c0.6,0.8,0.8,0.9,1.3,1.7c-3.1-6.2-4.3-3.3-8.9-11c-0.2-0.3-0.4-0.7-0.6-1c-0.2-0.3-0.3-0.6-0.4-0.9c-0.3-0.6-0.4-1-0.6-1.3
						c-0.2-0.7-0.1-0.7,0.6,0.1l-3.9-5.7c-0.5-0.9-0.6-1.3-0.4-1.2c0.1,0.1,0.5,0.6,1,1.4c0,0-0.1-0.2-0.2-0.4
						c-0.2-0.3-0.4-0.6-0.6-1.1c-0.4-0.9-1.1-2.1-1.7-3.2c-1.2-2.3-2.5-4.7-2.5-4.7l0.1,0.1c-0.5-0.6-1.2-1.6-1.9-2.7
						c-0.7-1.1-1.4-2.2-1.9-2.9c-0.8-2.6,0.8,1.1,0.8,0.4c0,0-0.7-1.3-1.4-2.6c-0.4-0.7-0.7-1.3-1-1.8c-0.3-0.5-0.4-0.8-0.4-0.8
						c-0.2-1.2,0.3-0.8,1.1,0.5c0.8,1.2,1.8,3.2,2.6,5.1c-0.1-2.9-0.7-4-1.8-5.7c-0.5-0.9-1.1-1.9-1.7-3.5c-0.3-0.8-0.7-1.7-1.1-2.7
						c-0.2-0.6-0.4-1.1-0.6-1.7c-0.2-0.6-0.4-1.3-0.6-2c0,0,0.1,0.3,0.3,0.8c0.2,0.4,0.5,1.1,0.8,1.7c0.6,1.3,1.2,2.5,1.2,2.5
						c0-0.9-0.2-1.9-0.4-2.9c-0.2-1-0.6-2-0.8-3.1c-0.6-2.2-1.3-4.7-1.9-7.8c0.1,0.8,0.6,3.8,0.7,6.1s0.1,3.5-1.2,0.6
						c-0.4-1.8-1.1-4-2.6-7.2c0.8-0.3-0.3-3.4-1.6-7.4h1.1c-0.4-1.1-0.7-1.8-0.9-2.4c-0.2-0.6-0.4-1-0.7-1.4
						c-0.4-0.7-0.8-1.2-1.3-2.5c-1.1-4.9-0.5-6.1,0-7.4c-0.6-3.9-0.7-2.6-0.9-1.3c-0.2,1.3-0.4,2.3-1.3-2.3
						c-0.2-1.7-0.4-3.2-0.7-4.7s-0.4-2.9-0.7-4.4c-0.3-1.5-0.6-3-0.9-4.7c-0.1-0.4-0.2-0.8-0.3-1.3c-0.1-0.4-0.2-0.9-0.2-1.3
						c-0.2-0.9-0.3-1.8-0.4-2.8c0-4.7,0.7,0.8,0.9-0.9l-1.2-4.1c-0.1-1,0.2-0.7,0.4-0.6c-0.2-0.9-0.3-1.3-0.4-1.6
						c-0.1-0.3-0.3-0.4-0.4-0.5c-0.3-0.3-0.6-0.9-0.8-3.7c-0.3-0.4-0.4-1.3-0.3-2.5c0-0.6,0.1-1.3,0.2-2.1c0.1-0.4,0.1-0.8,0.1-1.2
						c0.1-0.4,0.1-0.8,0.2-1.3c0.2-1.8,0.5-3.7,0.6-5.6c0.1-1.9,0.1-3.8-0.1-5.6c0.4-1.7,0.6,0.8,1.1,0.3c-0.1-4.7-0.1-6.7-0.2-8.6
						c-0.1-0.9,0-1.8-0.1-2.9c0-1.1-0.1-2.5-0.1-4.5c0,0,0.4-1.6,0.8-3.2c0.2-0.8,0.4-1.6,0.6-2.2c0.2-0.6,0.3-1,0.3-1
						c-1.7,4.7-1.5-1.6-1.3-7.2c-0.7,1.7-1.3,3.1-1.6,4c0,0,0.2-2.2,0.5-4.4c0.1-1.1,0.3-2.2,0.4-3c0.1-0.8,0.2-1.4,0.2-1.4
						c0.4-1,0.6-0.1,0.7,1.4c0.1-0.6,0.1-1.2,0.1-1.6c1.1-3,1.3-1.2,1.4,1.1c-0.4,1-0.9,2-1.3,2.9c0.3,2.3,0.6,4.4,1.3,4.1
						c0-0.6,0.1-1.7,0.2-2.8c0.1,0.6,0.2,0.9,0.3,0.7c0.1-0.1,0.1-0.4,0.1-0.9s0-1.1,0-1.8l1.6-1.7l-0.3-0.6c0,0,0.8-2.7,1.6-5.4
						c0.4-1.4,0.9-2.7,1.3-3.7c0.3-1,0.6-1.7,0.6-1.7c0.3-2,0.4-4,0.7-6.1c0.3-2,0.7-4.1,1.1-6.2c0.2-1.1,0.4-2.2,0.7-3.4
						c0.3-1.2,0.6-2.4,0.9-3.7c0.4-1.3,0.8-2.6,1.2-4c0.4-1.4,0.9-2.9,1.6-4.3c-0.6,3.3,1,1.2,1.9,1.8c-0.6,0.7-1.1,1.7-1.6,2.8
						c-0.4,1.1-0.9,2.4-1.3,3.8c-0.4,1.4-0.9,2.9-1.3,4.4c-0.4,1.6-0.9,3.1-1.5,4.7c1.2-3.3,1.4-2.4,1.3-1.5c0,0,0.2-0.7,0.4-1.8
						c0.1-0.6,0.3-1.2,0.4-1.8c0.2-0.7,0.4-1.4,0.6-2.1c0.8-2.8,1.7-5.7,1.7-5.7c0.3,0.3,0.7-0.2,1.2-1.2c0.5-0.9,1.2-2.3,1.9-3.6
						c-1.2,0.7-0.6-1.4,0.6-4.3c0.3-0.7,0.6-1.5,0.9-2.3c0.4-0.8,0.7-1.6,1.1-2.3c0.7-1.6,1.4-3,1.8-4.2c0.6,0,0.6,1.3-2.2,6.5
						c2.1-2.6,2.6-4.7,3.1-6.8c0.4-2.1,1.1-4.2,3.1-6.7c-0.7,1.3-1.2,1.9-1.2,2.6c0.6-1.6,2.1-4.1,3.3-6c0.6-0.9,1.2-1.7,1.6-2.1
						c0.4-0.4,0.6-0.5,0.4,0l-0.8,1.2c1.3-2,3-4.5,4.7-7.2c0.4-0.7,0.9-1.3,1.3-2c0.4-0.7,0.9-1.3,1.4-2c0.9-1.3,1.8-2.7,2.7-4
						c0.2-0.3,0.4-0.7,0.7-1s0.4-0.6,0.7-0.9c0.4-0.6,0.8-1.2,1.3-1.8c0.8-1.1,1.5-2.2,2.1-3.1c0.6-0.9,1.1-1.7,1.4-2.4
						c0.3-0.7,0.5-1.1,0.5-1.3c0.2,0.1,0.5,2.1,0.4,2.7c0,0,0.1-0.3,0.3-0.7c0.2-0.4,0.5-1.1,0.8-1.8c0.7-1.5,1.7-3.5,2.6-5.6
						c0.2-0.5,0.5-1,0.7-1.5c0.2-0.5,0.5-1,0.7-1.4c0.5-0.9,0.9-1.8,1.3-2.6c0.8-1.5,1.3-2.5,1.3-2.5c-0.1,1,1.4,0.9,2.3,1.4
						s1.2,1.5-1.3,4.6c0.8-0.8,1.8-1.6,2.9-2.8c1.1-1.1,2.3-2.6,3.9-4.3c-0.6,0.5-1.6,0.8-2.3,0.9c-0.7,0.1-1-0.2-0.3-1
						c2.6-1.6,3.4-2.1,4.4-2.8c0.5-0.3,1-0.7,1.8-1.3c0.8-0.6,1.8-1.3,3.3-2.2c-1.9,1.3-1.3-1.8,1.6-4.2c-0.3,0.6,1.4,1.2,0.6,2.3
						c0,0,1.4-1.8,2.8-3.7c0.3-0.5,0.7-0.9,1.1-1.3c0.3-0.4,0.7-0.8,0.9-1.2c0.6-0.7,0.9-1.1,0.9-1.1c-1.6,1.7,0.7,1.5,2.6,0.7
						c-0.5,0.2,1.1-1.1,3-2.5c1.9-1.4,4.3-2.9,5.2-3.8l-3.4,1.9c2.2-1.4,3.7-2.7,4.8-3.8c0.6-0.6,1.1-1.1,1.6-1.6
						c0.5-0.5,0.9-1,1.4-1.4c0.9-1,1.8-1.9,3-3.1c1.2-1.1,2.7-2.3,5-3.6c-0.9,0.9-1.4,3.6,3.2,1.2c0.4-0.5,1.1-1.3,1.9-2.4
						c0.8-1.1,1.9-2.3,3.2-3.6c1.3-1.3,2.8-2.7,4.5-4.1c0.8-0.7,1.7-1.4,2.7-2s1.9-1.2,2.9-1.8l1.8-0.2c0,0,1.6-0.9,3.1-1.8
						c0.8-0.4,1.6-0.8,2.2-1.2c0.6-0.3,1-0.5,1-0.5c-1.8,1.4-5.2,4.3-8.8,7.1c-0.4,0.3-0.9,0.7-1.4,1.1c-0.4,0.3-0.9,0.7-1.3,1.1
						c-0.9,0.7-1.8,1.4-2.6,2.2c-1.7,1.4-3.3,2.7-4.6,3.7c3.6-1.4,1.3,0.1,6.4-2.6c2.1-0.4-2.4,2.1-3.9,2.9c0,0,3-1.4,6.1-2.9
						c1.5-0.8,3.1-1.4,4.2-1.9c1.2-0.5,1.9-0.8,1.9-0.8c-0.5-0.4,1.7-1.7,3.9-3c2.3-1.2,4.6-2.3,4.2-2.7c0,0-0.8,0.4-2.1,1
						c-0.6,0.3-1.3,0.7-2.1,1.1c-0.8,0.4-1.6,0.8-2.4,1.3c-3.2,1.8-6.4,3.6-6.4,3.6c-0.5-0.4,1.1-1.9,3.9-3.9c0.7-0.5,1.5-1,2.3-1.6
						c0.8-0.5,1.8-1.1,2.8-1.6c2-1,4.2-1.9,6.4-2.8c2.4-0.5-1,2.6-0.7,2.8c0.3-0.2,0.9-0.6,1.7-0.9c0.4-0.2,0.9-0.4,1.4-0.7
						c0.5-0.2,1-0.4,1.5-0.6c2.1-0.8,4.1-1.5,4.6-1.6l-3.7,1.9c2.6-0.7,4.5-1.7,6.6-2.7c0.3-0.1,0.5-0.3,0.8-0.4
						c0.3-0.1,0.6-0.2,0.8-0.3c0.6-0.2,1.2-0.4,1.8-0.6c1.2-0.4,2.6-0.7,4.2-0.9c0.6-0.1,1.2-0.2,1.9-0.3c0.7-0.1,1.5-0.1,2.2-0.2
						c1.4-0.1,2.6-0.2,2.7-0.5c-3.8-0.4-5.5-4.1-3.3-5.6c0.4-0.1,3.4-0.4,6.6-0.8c0.8-0.1,1.6-0.2,2.4-0.2c0.8-0.1,1.6-0.1,2.3-0.1
						c1.4-0.1,2.6-0.1,3.3-0.1c1.9,0.2,0.6,1-0.7,1.8c-1.3,0.8-2.7,1.7-1.1,1.8c0.1-0.3,2-1.1,2.8-1.3c2.3-0.2-0.8,1.1,4.2,0.1
						c0.7-1.2,10.2-1.2,2.2-1.3c2.4-0.5,3.8-0.6,5.2-0.7c1.4-0.1,2.9-0.2,5.8-0.4c-0.9-0.3,0.3-1,2.4-1.8c1.1-0.4,2.3-0.7,3.7-1.1
						c0.7-0.2,1.3-0.3,2-0.4s1.3-0.2,1.9-0.2c-0.3,0.3,0.8,0.7,1.4,0.8c2.6-0.1,4.8-0.1,6.9-0.1c2.1,0.1,4.1,0.2,5.9,0.3
						c1.9,0.1,3.8,0.2,5.8,0.4c2,0.2,4.1,0.4,6.5,0.6c0.4,0.2,1.8,0.4,2.8,0.7c1,0.2,1.6,0.6,0.6,0.7c1.4-0.1,2.7-0.3,5.6,0.1
						c5.5,1.7-6.5-0.7-2.3,1.1c0.2-0.3,2.1-0.3,4.5-0.2c0.6,0.1,1.2,0.1,1.8,0.1c0.6,0.1,1.3,0.1,1.9,0.2c1.3,0.1,2.5,0.3,3.6,0.3
						c-0.3-0.3-1-0.6-2-0.8c-1-0.2-2.3-0.4-3.7-0.6c-2.8-0.2-5.9-0.3-8-0.4c0.1-0.7,1.9-1.2,5.1-1.4c0.8-0.1,1.7-0.1,2.6-0.1
						c0.9,0,1.9-0.1,3,0c2.1,0.1,4.4,0.3,7,0.6c1,0.1,1.8,0.3,2.4,0.4c0.6,0.1,1.1,0.3,1.4,0.4c0.7,0.2,0.9,0.4,0.9,0.5
						c0,0.2-0.8,0.3-0.1,0.4c3.7,0.9,6.3,1.4,8.4,1.7c2.1,0.4,3.6,0.5,5.1,0.7c1.4,0.2,2.8,0.3,4.6,0.7c0.9,0.2,1.8,0.5,2.9,0.9
						c1.1,0.4,2.3,0.9,3.8,1.5c4.4,2.4-0.4,1.8,0.4,2.7c-3.1-0.9-5.4-1.8-7.5-2.7c-2.1-0.8-3.9-1.6-6.1-2.1l5.1,1.9
						c-2.1-0.3-6.3-1.2-8.5-2.1c0.9,0.5,2.9,1.2,5.6,1.9c1.3,0.4,2.8,0.8,4.3,1.3c1.6,0.6,3.2,1.1,4.9,1.7c1.7,0.6,3.5,1.2,5.2,1.8
						c1.7,0.7,3.4,1.4,5.2,2.1c0.8,0.3,1.7,0.7,2.5,1.1c0.8,0.3,1.6,0.7,2.4,1.1c1.5,0.7,2.9,1.4,4.2,2.1c2,0.6,5.3,1.7,3.9,0.7
						l-3.4-1.4c-2.8-2.1,6.7,1.9,2.6-0.3c0.6,0.2,1.2,0.4,1.8,0.6c0.6,0.2,1.2,0.4,1.8,0.7c1.2,0.5,2.5,1,3.8,1.6s2.7,1.2,4.1,1.9
						c1.4,0.8,2.8,1.6,4.3,2.6l0.6,1.6c0-0.3-3.6-2.8-5.4-3.5c1.4,0.5,3.5,2.2,5.7,3.7c1.1,0.8,2.2,1.5,3.3,2.1
						c1.1,0.6,2,1.1,2.8,1.2c0,0-0.9-0.8-1.8-1.6c-0.2-0.2-0.4-0.4-0.7-0.6c-0.2-0.2-0.4-0.3-0.6-0.5c-0.4-0.3-0.6-0.5-0.6-0.5
						c0.6,0.3,1.2,0.5,1.8,0.8c0.6,0.3,1.2,0.6,1.8,0.9c1.2,0.6,2.6,1.2,3.8,1.9c0.7,0.3,1.3,0.7,2,1.1c0.7,0.3,1.3,0.7,1.9,1.2
						c1.3,0.8,2.6,1.7,3.8,2.7c-1.7-2.4-1.2-0.7-4.2-4.2c1.2,1.7-2.1-0.5-5.2-2.5c-1.6-1-3.1-1.9-3.9-2.3s-1-0.3,0.1,0.8
						c-1.6-1.7-3.2-2.8-5-4c-0.9-0.6-1.8-1.2-2.8-1.9c-0.2-0.2-0.5-0.3-0.8-0.6c-0.3-0.2-0.6-0.4-0.8-0.6c-0.6-0.4-1.1-0.8-1.7-1.3
						c0,0.4,1.6,1.6-3-1c-0.3,0-0.8-0.2-1.2-0.3c-0.1-0.1-0.2-0.1-0.3-0.2c0.1,0.1,0.2,0.1,0.2,0.2c-0.2-0.1-0.2-0.1,0.1,0.1
						c1.1,0.7,1.8,1.3,2.1,1.7c-0.7-0.1-1.6-0.4-2.7-0.9c-0.6-0.2-1.1-0.4-1.7-0.7c-0.3-0.1-0.6-0.3-0.9-0.4
						c-0.3-0.1-0.6-0.2-0.9-0.4c-2.6-1-5.1-2.1-6.4-2.4c-2.7-1.4,1.3,0.2-0.1-0.8c0,0-1-0.3-2-0.6c-1-0.2-2.1-0.5-2.1-0.5
						c-0.1-0.8-7.2-4.2-0.2-1.9l-6.1-2.4c-0.8-0.5-1.8-0.9-2.8-1.3c-1-0.4-2.1-0.8-3.1-1.2c-1.1-0.4-2.1-0.7-3.1-1.1
						c-1-0.3-1.9-0.6-2.7-0.7c-2.9-1-7.8-1.3-5-1.2c0,0-0.6-0.2-1.6-0.4c-0.9-0.2-2.2-0.6-3.4-0.8c-2.6-0.4-5.1-0.9-5.1-0.9
						l-0.1-0.2c-4.9-1.3-10.2-1.8-15.5-2.6c-5.4-0.5-10.9-1.4-16.6-2.3c-1.7-0.1-3.4-0.1-5.4-0.2c-2,0-4.3-0.1-7.2-0.2l-1.1-0.7
						c-2.2,0-5.5-0.1-8.5-0.1c-3,0-5.7-0.1-6.6,0.4c-1.2-0.3-3.2-0.4-5.5-0.4c-1.2,0.1-2.4,0.1-3.8,0.2c-1.3,0.1-2.7,0.3-4.2,0.6
						c-1.4,0.2-2.8,0.4-4.3,0.6c-1.4,0.2-2.8,0.4-4.2,0.7c-2.7,0.6-5.1,1-7.1,1.3l-0.1,0.9c-0.7,0.1-1.3,0.2-1.9,0.3
						c-0.7,0.2-1.3,0.3-1.9,0.4c-1.3,0.3-2.6,0.7-3.9,1c-1.3,0.4-2.7,0.7-4.2,1.2c-1.4,0.4-2.9,0.9-4.4,1.5l0.6,0.6
						c-2.6,1.1-6.2,1.8-10.1,3.1c-1.9,0.6-4,1.2-6.1,1.7c-2.1,0.7-4.2,1.5-6.3,2.3c0.4-0.5,2.6-1.3,4.2-1.7
						c-2.7,0.6-5.3,1.5-7.8,2.5c-2.6,1.1-5,2.4-7.4,3.8c-2.4,1.3-4.8,2.7-7.1,4c-1.2,0.6-2.3,1.2-3.4,1.8c-1.2,0.5-2.3,1.1-3.4,1.6
						c-1.9,1.4-3.6,2.2-5.1,2.9c0.2-0.1,0.4-0.2,0.5-0.3c-0.2,0.1-0.6,0.3-0.9,0.5c-0.5,0.2-1,0.4-1.5,0.7c-0.5,0.2-1,0.5-1.6,0.8
						c0.9-0.4,1.8-0.8,2.6-1.2c-0.8,0.4-1.8,1.2-2.8,1.9c-1.1,0.7-2.2,1.6-3.3,2.4l-1.4-0.1c-0.2,0.1-0.3,0.2-0.6,0.4
						c-2.4,1.2-1.6,1.5-0.1,1.2c-1.1,0.8-2.1,1.8-2.7,2.5c-1.3,0.1-2.7,1.3-4.2,2.4c-0.8,0.6-1.5,1.2-2.3,1.7
						c-0.8,0.5-1.6,0.9-2.3,1.2c-0.6,0.8-3.2,3.1-5.8,5.4c-2.4,2.4-4.8,4.9-4.9,5.9c-0.2-0.1-0.9,0.4,0.3-0.6
						c-0.6,0.5-1.2,0.9-1.8,1.4c-0.3,0.2-0.6,0.5-0.9,0.7c-0.3,0.3-0.6,0.5-0.8,0.8c-1.1,1-2.1,2.1-2.9,3.2l-1.7,0.2
						c0,0-1,1.4-1.9,2.8c-0.9,1.4-1.8,2.9-1.8,2.9c-3.3,2.5-4.7,3.5-2.4,0c-1.5,2-2.6,3.3-3.4,4.4c-0.8,1.1-1.4,1.8-1.9,2.6
						c-1.1,1.4-2.1,2.7-4.3,6.3l-0.3-0.7c-1.8,2.4-4.1,6.6-5.6,7.7c-1.2,1.2-3.1,3.4-5.2,6.3c-0.6,0.7-1.2,1.5-1.7,2.3
						c-0.6,0.8-1.1,1.7-1.7,2.6c-1.2,1.8-2.4,3.8-3.7,5.8c-1.2,2.1-2.4,4.2-3.7,6.3c-0.3,0.6-0.6,1.1-0.9,1.6s-0.6,1.1-0.9,1.7
						c-0.6,1.1-1.2,2.2-1.8,3.3c-0.6,1.1-1.2,2.2-1.8,3.3c-0.3,0.6-0.6,1.1-0.9,1.6s-0.6,1.1-0.8,1.6c-1.1,2.1-2.1,4.2-3.1,6.1
						c1.6-1.1,0.5,0.6-0.7,2.8c-1.2,2.2-2.6,4.9-2,5.4c-0.8,0.8-1.9,2.9-1.3,0.2c-0.3,1.1-0.7,2-1.1,2.9c-0.3,0.9-0.6,1.8-0.9,2.6
						c-0.6,1.7-1.2,3.1-1.7,4.5c-0.3,0.7-0.5,1.4-0.7,2.1c-0.1,0.3-0.2,0.7-0.3,1c-0.1,0.3-0.2,0.7-0.3,1c-0.3,1.4-0.6,2.8-0.7,4.3
						c-0.7,0.8-0.1-2-0.7-1.2c-0.1,0.7-0.4,2.8-0.9,3.6c-0.5,0.8,0-1.3,0.2-2.7c-0.6,2.2-1,3.9-1.2,5.2c-0.2,1.4-0.2,2.4-0.1,3.1
						c0.2,1.5,0.8,2.1,1.3,2.5c-0.8,2.1-1.3,3.7-1.6,5.3c-0.2,1.5-0.2,2.9-0.1,4.6c-0.7,1.4-1.6,4-0.8-1.5c-0.2,0.8-0.5,2.3-0.9,4.2
						c-0.2,0.9-0.4,2-0.6,3.1c-0.2,1.1-0.3,2.2-0.4,3.3c-0.6,4.4-1,8.4-0.4,8.6c-0.3,0.9-0.4,4.3-0.3,5.2c-0.2,1.7-0.3,3.1-0.4,4.2
						c-0.1,1.2-0.1,2.1-0.1,3.1c-0.1,1.9-0.1,3.7-0.2,7.2l0.2-1.9c0.3,0.7,0.4,1.4,0.6,2.1c0.1,0.7,0.1,1.6,0.1,2.4
						c0,1.8-0.2,3.9-0.1,6.7l-0.1-0.2c-0.2,3.2-0.1,5.1,0,6.4c0.1,1.3,0.2,1.9,0.3,2.6c0.1,0.7,0.2,1.3,0.3,2.6
						c0.1,0.7,0.1,1.4,0.1,2.4c0.1,1,0.1,2.3,0.2,3.8l0.7-0.8c0.9,0.5,1,3.2,1.1,6.8c0.1,1.8,0.2,3.7,0.4,5.7c0.2,1.9,0.5,3.9,1,5.7
						c0,0,0-0.2,0-0.4c0-0.2,0-0.6,0-0.9c0-0.7,0-1.3,0-1.3c0.3,0.9,0.4,2.1,0.6,3.4c0.1,1.3,0.1,2.7,0.1,4.1c0,2.8-0.2,5.8,0.3,7.7
						c0.1,0.9-0.6-1.3-1-2.4c1.8,10.4,1.4,1.1,3.7,8.5c-0.1,0.8-0.6,0.4-0.8,0.6c-0.2,0.1-0.2,0.2-0.2,0.7s0.2,1.2,0.6,2.5
						c0.2,1.3,1.8,4.8,3.7,8.8c1,2,2,4.1,2.9,6.2c0.4,1.1,0.8,2.1,1.2,3c0.4,0.9,0.7,1.9,0.9,2.8c-0.3-1.6-0.5-3.2,1.3-0.1
						c0.6,1.2,1.2,2.8,1.8,4.4c0.3,0.8,0.6,1.7,0.9,2.6c0.3,0.8,0.7,1.7,1.1,2.6c0.7,1.7,1.5,3.4,2.3,4.8c0.4,0.7,0.8,1.4,1.2,2.1
						c0.4,0.6,0.9,1.2,1.4,1.6c0.2,0.7,0.3,0.9,0.2,1.1c0.6,0.9,1.4,2.1,2.2,3.3s1.7,2.7,2.7,4c1.9,2.6,3.7,5,4.7,5.9
						c0,0.3,0.1,0.7,0.2,1.1c0.1,0.4,0.3,0.8,0.5,1.2c0.4,0.9,1.1,1.9,1.8,3c0.8,1.1,1.6,2.3,2.6,3.4c0.2,0.3,0.4,0.6,0.7,0.9
						c0.2,0.3,0.5,0.6,0.8,0.9c0.5,0.6,1,1.2,1.5,1.7c1,1.2,2,2.3,2.9,3.3c0.9,1.1,1.7,2,2.4,2.8c1.4,1.6,2.1,2.8,1.6,3.2
						c0,0,0.6,0.6,1.3,1.5c0.4,0.4,0.9,1,1.4,1.6c0.5,0.6,1.1,1.2,1.6,1.8c2.3,2.3,4.6,4.7,4.6,4.7l-0.4-0.1c0.7,0.8,1.3,1.4,2,2.1
						c0.6,0.6,1.2,1.2,1.8,1.7c1.1,1,2.1,1.8,2.9,2.4c1.7,1.3,2.9,2.2,4.2,2.9c1.3,1.4,0.1,0.7-0.1,0.7c4.4,4.2,6.9,6.5,9.4,8.3
						c1.3,0.9,2.5,1.7,4,2.7c0.7,0.4,1.5,1,2.4,1.4c0.9,0.5,1.9,1.1,3.1,1.7l0.4,1.3c0.6,0.3,1.8,1.2,3.3,2.4
						c0.8,0.6,1.7,1.3,2.7,1.9c1,0.7,2.1,1.5,3.2,2.3c1.1,0.8,2.3,1.7,3.6,2.5c1.3,0.8,2.6,1.6,3.9,2.4s2.7,1.6,4.1,2.3
						c0.7,0.4,1.4,0.7,2.1,1c0.7,0.3,1.4,0.6,2.1,0.9c-0.2,0.1-0.4,0.1-1.3-0.3c6.2,2.7,13.2,6.7,19.6,9.6c1.6,0.7,3.2,1.4,4.6,2
						c0.7,0.3,1.4,0.6,2.1,0.8c0.7,0.2,1.4,0.4,2,0.6c2.6,0.7,4.7,1.1,6.1,0.7c0,0,0.6,0.1,1.3,0.3c0.8,0.2,1.9,0.4,3,0.6
						c2.2,0.4,4.3,0.8,4.3,0.8c-5.4-1.7-4.9-1.9-3.6-1.9c1.3,0,3.4,0.2,1.3-0.7c2.2,0.5,4.9,1.6,6.4,2.2c0.8,0.3,1.2,0.6,1.2,0.7
						s-0.7,0.1-2-0.3l-0.8-0.4c-0.6,0.2-0.1,0.6,1.1,1.1c1.2,0.4,2.9,0.9,4.8,1.4c1.8,0.4,3.7,0.9,5.1,1.3c0.7,0.2,1.3,0.4,1.7,0.5
						c0.4,0.2,0.6,0.3,0.5,0.4c2.8,0.5,5.6,1,8.3,1.5c0.7,0.2,1.4,0.2,2.1,0.3l2.1,0.3c1.4,0.2,2.8,0.4,4.2,0.6l2.1,0.3
						c0.7,0.1,1.4,0.2,2.1,0.3c1.4,0.1,2.8,0.3,4.1,0.4c1.4,0.1,2.8,0.3,4.1,0.4c0.7,0.1,1.4,0.2,2.1,0.2l2.1,0.1
						c2.7,0.1,5.5,0.2,8.2,0.4c2.7,0.1,5.4,0,8.1-0.1c1.3,0,2.7,0,4.1-0.1c1.3-0.1,2.7-0.2,4-0.3c1.3-0.1,2.7-0.2,4-0.3l2-0.2
						c0.7-0.1,1.3-0.2,2-0.2c0,0-0.6-0.2-1.3-0.4c-0.3-0.1-0.6-0.2-0.9-0.3c-0.2-0.1-0.4-0.2-0.4-0.2s0.1,0,0.3,0
						c0.2,0,0.5,0,0.8-0.1c0.7-0.1,1.6-0.2,2.5-0.3c1.8-0.2,3.7-0.4,3.7-0.4c1.9,0.1,2.7,0.6-2.6,1.2c1.4,0.2,3.6-0.3,5.4-0.8
						c0.4-0.1,0.9-0.3,1.3-0.4c0.4-0.1,0.7-0.3,1.1-0.4c0.6-0.3,1-0.4,1-0.5c5.1-0.7,4.2-0.1,2.4,0.5c-1.8,0.6-4.6,1.3-3,1.1
						l4.2-0.8l-1,0.1c1.7-0.6,2.6-0.9,3.8-1.4c0.6-0.2,1.3-0.4,2.3-0.6c0.9-0.3,2.1-0.6,3.7-0.9c3.9-0.7,2.2,0.3,3.7-0.1
						c0,0.1,0.6,0,2.4-0.5c0,0,0.6-0.1,1.4-0.3c0.8-0.2,1.9-0.6,3.1-0.8c2.3-0.6,4.5-1.2,4.5-1.2l-3.8,0.1c1.9-0.8,4-1.4,5.1-1.7
						c0.6-0.2,0.8-0.3,0.7-0.4c-0.1-0.1-0.2-0.1-0.5-0.1c-0.3,0-0.7,0-1.3,0c0.4,0,0.9-0.1,1.4-0.1c0.6-0.1,1.2-0.2,1.8-0.4
						c1.3-0.3,2.9-0.7,4.7-1.3c3.5-0.9,7.4-2.6,11.3-4.1c1.9-0.7,3.8-1.6,5.6-2.4c1.8-0.8,3.4-1.6,4.9-2.3c0.8-0.3,1.4-0.7,2.1-1
						s1.2-0.6,1.7-0.9c1.1-0.5,1.8-0.9,2.3-1c1.2-0.8,2.4-1.6,3.7-2.3c1.2-0.8,2.4-1.6,3.8-2.4c2.6-1.6,5.4-3.1,8.3-5
						c-1.6,0.8-3,0.4,2.1-2.7c-0.2,0.8,0.4,0.8,1.3,0.4c1-0.4,2.4-1.1,3.9-2.2c1.6-1,3.3-2.2,4.9-3.1c0.8-0.5,1.6-0.9,2.4-1.3
						c0.7-0.4,1.4-0.8,2-1c-2.1,0.9,1.3-1.8,4.4-4.4c1.6-1.3,2.9-2.6,3.6-3.4c0.7-0.8,0.6-1-1-0.2c3.9-3.2,0.8,0.4,4-1.7
						c0.6-0.6,1.1-1.1,1.7-1.6c0.6-0.6,1.2-1.1,1.7-1.6c1.1-1.1,2.3-2.3,3.4-3.4c1.2-1.2,2.4-2.3,3.7-3.4c1.2-1.2,2.4-2.4,3.7-3.7
						c1.2-1.2,2.6-2.4,3.8-3.8c1.2-1.3,2.4-2.7,3.7-4c0.6-0.7,1.2-1.4,1.8-2.1l0.9-1.1l0.9-1.1c1.2-1.4,2.3-2.9,3.4-4.4
						c-0.1-0.3-2,1.3-0.3-1.4c0,0,0.4-0.3,0.9-0.8c0.3-0.2,0.6-0.6,0.9-0.8c0.3-0.3,0.7-0.7,1.1-1c1.4-1.4,2.9-2.8,2.9-2.8
						c0.8-1.2,0.8-2.1,1.2-3c0.2-0.5,0.4-1,0.8-1.7c0.4-0.7,1.1-1.4,2-2.4c-0.6,0.5-1.6,1.3-0.6-0.4c8.6-11.8,15.3-25.4,20.6-39.4
						c5.3-14.1,9.3-28.5,12.9-43c-1.3,3.9-0.8,1.2-0.3-1.8c-0.5,1.9-0.7-0.2-1.2,0.2c0,0,0.1-0.2,0.1-0.5c0.1-0.3,0.2-0.8,0.3-1.4
						c0.2-1.2,0.6-2.7,0.9-4.2s0.7-3.1,0.9-4.2c0.1-0.6,0.2-1.1,0.3-1.4s0.1-0.6,0.1-0.6c-0.4-1.2-0.2-4.5,0-7.7
						c0.1-0.8,0.1-1.6,0.2-2.3c0-0.8,0-1.4,0-2.1c-0.1-1.3-0.2-2.2-0.4-2.5l0.1,3.9c-0.6-2.6-1.3-0.8-2.1,1.5
						c-0.9,2.3-1.9,5.2-2.7,4.7c0.2,1.4,0.2,3.1-0.1,4.9c-0.3,1.8-0.8,3.8-1.3,5.8c-0.2,1.1-0.5,2.1-0.7,3.2
						c-0.1,0.6-0.2,1.1-0.3,1.7c-0.1,0.6-0.2,1.1-0.3,1.7c-0.4,2.2-0.7,4.6-0.6,7c-0.7,2-0.2-1.8-0.8-0.8c0.3,2.5-0.3,5.3-1.7,10.4
						l-0.1-0.6c-0.2,0.9-0.4,1.8-0.6,2.7c-0.2,0.8-0.4,1.7-0.7,2.4c-0.4,1.6-0.9,3.1-1.3,4.5c-0.2,0.7-0.4,1.4-0.6,2.1
						c-0.1,0.3-0.2,0.7-0.3,1c-0.1,0.3-0.2,0.7-0.3,1c-0.5,1.3-1,2.6-1.4,3.9c-0.5,1.3-1,2.6-1.5,3.9c-0.2,0.7-0.6,1.3-0.8,2.1
						c-0.3,0.7-0.6,1.4-0.9,2.1c-0.6,1.4-1.3,3-2.1,4.7c-0.2,0.4-0.3,0.8-0.6,1.3c-0.2,0.4-0.4,0.8-0.6,1.3
						c-0.4,0.9-0.9,1.8-1.3,2.7l1.2-0.8c-1.6,3.2-2.1,3.8-3,5.3c-0.6,4.3,4.2-9.2,3.9-5.2c-0.9,0.9-1.9,2.8-3.1,5.2
						c-0.6,1.2-1.3,2.4-2,3.8c-0.7,1.3-1.4,2.7-2.1,4.1c-0.3,0.7-0.7,1.4-1.1,2.1c-0.4,0.7-0.8,1.3-1.1,1.9
						c-0.7,1.2-1.4,2.4-2.1,3.4c-1.3,2.1-2.5,3.6-3.3,4c-3,4.7,1.7-0.9-1.3,3.8l-1.2,0.9l-0.2,1.5c-0.5,0.7-1,1.4-1.4,1.9
						c-0.4,0.5-0.9,0.9-1.2,1.2c-0.7,0.6-1.2,0.9-1.4,0.8c0.6-0.7,1.3-2.1,1.9-2.9c-1.6,1.7-3.4,4.4-5.1,6.9
						c-0.8,1.2-1.6,2.3-2.3,3.2c-0.7,0.9-1.2,1.6-1.4,1.8c0,0,0.9-1,1.8-2c0.4-0.5,0.9-1,1.2-1.4c0.3-0.4,0.6-0.6,0.6-0.6
						c-1.1,1.6-2.3,3.1-3.4,4.7c-0.6,0.8-1.2,1.6-1.8,2.4c-0.3,0.4-0.6,0.8-0.9,1.2c-0.3,0.4-0.7,0.8-1,1.2c-1.3,1.6-2.7,3.1-4,4.7
						l-1,1.2c-0.3,0.4-0.7,0.8-1.1,1.2l-2.2,2.3c-1.4,1.5-2.8,3-4.3,4.5c-1.5,1.4-2.9,2.8-4.3,4.3c-2.8,2.9-5.7,5.4-8.3,8.1l1.1-0.4
						c-1,1-1.8,1.8-2.6,2.5c-0.8,0.7-1.4,1.2-2.1,1.7c-1.2,0.9-2.2,1.6-3.2,2.3c-0.5,0.3-1,0.7-1.6,1.1c-0.6,0.4-1.1,0.8-1.8,1.3
						c-1.4,0.9-3.2,2.2-5.6,4.1l0.3-0.3c-1.8,1.8-4.4,3.7-7.3,5.4c2.4-2.1-5.3,2.4-2.2-0.2c-0.6,0.4-1.2,0.8-1.7,1.2
						c-0.5,0.3-1,0.7-1.4,0.9c-0.8,0.6-1.5,1-2,1.4c-1.1,0.7-1.5,1.1-1.9,1.4c-0.4,0.3-0.6,0.7-1.2,1.2c-0.6,0.6-1.4,1.3-3,2.6
						l-1.9,0.3c-1.1,0.9-1.7,1.4-2.6,2.1c-1,0.7-2.3,1.6-5.1,2.9c4.4-2.6-3.9,0.8,0.9-2.2c-3.1,1-5.7,2.1-7.9,3.2
						c-2.3,1-4.2,1.9-6,2.7c-0.9,0.4-1.7,0.8-2.5,1.2c-0.4,0.2-0.8,0.3-1.2,0.5c-0.4,0.2-0.8,0.3-1.2,0.4c-1.6,0.5-3,0.8-4.6,0.8
						c-2.5,1.8,0.2,1.1,3.2,0.2c0.7-0.2,1.5-0.5,2.2-0.7c0.7-0.2,1.3-0.5,1.8-0.7c0.9-0.4,1.4-0.5,0.7-0.1c1.4-0.2,0.4,0.5-1.5,1.5
						c-1.9,0.9-4.6,1.9-6.6,2.6c-1,0.3-1.9,0.5-2.9,0.6c-1,0.1-2.2,0.1-3.4,0.2c-1.3,0.1-2.8,0.2-4.6,0.5c-0.9,0.2-1.8,0.3-2.9,0.6
						c-1.1,0.2-2.2,0.4-3.4,0.7c1-0.2,1.1-0.4,2.1-0.6c-1.9,0.2-3.7,0.8-5.7,1.3c-0.9,0.3-1.9,0.6-3,0.8c-1.1,0.2-2.2,0.3-3.4,0.3
						c-2.4,1.5-6.1,1-6.6,2.4l9.3-1.9c-2.6,0.7-5.1,1.6-8.1,2.4c-1.4,0.5-3.1,0.7-4.9,1.1c-1.8,0.3-3.8,0.5-6,0.6
						c0.7-0.3,3.2-1.1,5-1.4c-1.3-0.1-2.6,0.2-3.8,0.4c-0.6,0.1-1.2,0.2-1.9,0.3c-0.6,0.1-1.3,0.1-2,0.1c0.2-0.3,0.9-0.6,2.2-0.8
						c1.2-0.3,2.8-0.5,4.5-0.7s3.6-0.5,5.4-0.8c1.8-0.4,3.5-0.8,4.8-1.3c-0.7,0-1.7,0.2-2.8,0.4c-1.1,0.2-2.2,0.6-3.2,0.7
						c-1.9,0.4-3.3,0.6-1.9-0.3c-1.9,1.2-4.4,1.4-7.3,1.7c-2.9,0.1-6.1,0.2-9.6,1.2l0.4-0.8c-0.6,0.1-1.4,0.3-2.3,0.4
						s-2.1,0.2-3.1,0.3l3.6-1.1c-2.8,0.5-5.5,0.4-8.2,0.2c-0.7-0.1-1.3-0.1-2-0.1c-0.7-0.1-1.3-0.1-2-0.2c-1.3-0.1-2.7-0.2-4-0.1
						c2.8,0.1,4.4,0.2,5.2,0.3c0.8,0.1,0.9,0.2,0.9,0.4c-0.2,0.3-1.2,0.7,1.2,0.9c-1.7,0.2-3.2,0.2-4.4,0.2c-1.2,0-2.2-0.1-3-0.2
						c-1.7-0.2-2.7-0.5-3.8-0.8c-1.1-0.3-2.2-0.7-4.1-1.1c-0.9-0.2-2-0.3-3.3-0.5c-0.7-0.1-1.4-0.2-2.2-0.2
						c-0.4-0.1-0.8-0.1-1.3-0.1c-0.4,0-0.9-0.1-1.4-0.1c0.5,0.1,1.3,0.1,2.1,0.2c0.8,0.1,1.6,0.2,2.2,0.4c1.3,0.3,1.9,0.6,0.2,0.6
						c-0.7-0.1-1.6-0.2-2.3-0.3c-0.8-0.1-1.6-0.2-2.4-0.4c-1.6-0.3-2.9-0.7-3.8-1c-10.3-1.1,1.4,1-2.9,0.9c-1.7-0.7-2.9-0.7-4.4-0.8
						c-1.4,0-3,0.2-5.3-0.1l0.1-0.8c-1.4-0.3-2.6-0.6-3.5-0.7c-0.9-0.2-1.6-0.3-2.1-0.3c-1-0.1-1.4,0-1.8,0.2
						c-0.7,0.3-1.3,0.5-6.4-1l4.7-0.1c0,0-1.4-0.2-2.7-0.5c-0.7-0.1-1.4-0.2-1.9-0.3c-0.5-0.1-0.8-0.2-0.8-0.2s0.3-0.2,0.7-0.3
						c0.3-0.1,0.7-0.3,0.7-0.3c-3-0.4-4.9-0.9-6.8-1.4c-0.9-0.3-1.9-0.6-2.9-0.9c-1.1-0.3-2.2-0.8-3.6-1.3c1.1,1-1.2,1.2-6.2-0.5
						c-0.8-0.4-1.1-0.6-1.1-0.7s0.1-0.2,0.1-0.2c0.1-0.1-0.3-0.3-3.8-1.6c0.9,0.1,1.8,0.1,2.8,0.4c0.5,0.1,1.1,0.3,1.7,0.6
						c0.6,0.2,1.3,0.6,1.9,1c0.4-0.2,1.7,0.1,2.1-0.1c-3.5-1.6-8.9-3.4-11.4-4.4c0.9,0.4,2.1,0.9,2.6,1.2c0,0-0.7-0.2-1.6-0.4
						c-0.9-0.3-2.3-0.6-3.6-1c-2.6-0.8-5.1-1.7-5.1-1.7c-1.4-1-0.1-0.6,1.2-0.3c-1-0.4-1.9-0.7-2.9-1c-1-0.3-2.1-0.7-3.6-1.4
						c1.1-0.2,1.1-0.8,5.3,0.7c0,0-0.6-0.2-1.5-0.6c-0.4-0.2-1-0.3-1.6-0.6c-0.6-0.2-1.2-0.5-1.7-0.7c-2.3-1-4.7-2-4.7-2
						c-0.2-0.3-1.3-1.1-2.2-1.7c-0.4-0.3-0.8-0.6-0.9-0.8c-0.2-0.2-0.2-0.3,0.2-0.2c-2.3-1.6-5.5-3-8.8-4.6
						c-1.6-0.9-3.3-1.8-4.9-2.7c-1.7-1-3.3-1.9-4.7-3.2c-0.4-0.1-1.1-0.5-2.4-1.3c-1.4-1.1-2.8-2.1-4.1-3.2
						c-1.3-1.1-2.6-2.2-3.9-3.3c-1.3-1.1-2.7-2.2-4.2-3.4c-1.4-1.2-3-2.4-4.7-3.6c0,0-0.7-1-1.4-2c-0.7-1-1.3-2-1.3-2
						c-2.4-2.2-1.6-0.8-1.1,0.2c0.5,1,0.6,1.7-3.5-1.9c-2.9-2.6-3.3-3.2-3.1-3.5c0.2-0.3,0.8-0.2,0-1.3c-1.6-1.2-3.7-2.8-5.9-4.8
						c-0.3-0.3-0.6-0.5-0.9-0.8c-0.3-0.3-0.6-0.6-0.8-0.8c-0.6-0.6-1.1-1.2-1.7-1.8c-1.1-1.3-2.2-2.7-3.2-4.2
						C91.2,384.5,92.3,386,93.8,387.6z M52.6,318.6c0.3,0.7,0.9,1.8,1.3,2.8c0.5,1,0.9,2,0.9,2.6c-0.8-0.7-1.2-1.4-1.4-2.2
						C53.1,321,52.9,319.9,52.6,318.6z M45.8,196.9c-0.1,1.2-0.6,2.9-1.3,4.9C44.8,200.4,45.2,198.7,45.8,196.9z M319.3,46.3
						c-0.1,0-0.1,0-0.2,0C315.8,44.8,317,45.3,319.3,46.3z M326.3,49.2c0.7,0.2,0.7,0.1,0.5-0.2c-0.6,0-2.1-0.6-3.9-1.3
						C323.3,48,324.1,48.5,326.3,49.2z M300.5,458.6l-1.4,0.1C302.2,457.8,301.3,458.2,300.5,458.6z"/>
					<path fill="#255875" d="M43.9,210.9c-0.2,0.4-0.4,0.5-0.6,0.6C43.3,212.1,43.5,212.2,43.9,210.9z"/>
					<path fill="#255875" d="M131.5,420.5l0.2,0.2c0.1,0.1,0.2,0.1,0.3,0L131.5,420.5z"/>
					<path fill="#255875" d="M213,44.8c-1.5,0.2-2.3,0.2-2.9,0.1C210,45.1,210.7,45.1,213,44.8z"/>
					<path fill="#255875" d="M362.7,65.7c0,0-0.3-0.2-0.7-0.4c-0.4-0.2-0.9-0.6-1.4-0.8c-1.1-0.6-2.2-1.1-2.2-1.1
						c2.1,1.2,2.7,1.7,3.6,2.4C362,65.6,361.3,64.8,362.7,65.7z"/>
					<path fill="#255875" d="M392.7,94.7c0.6,0.4,1.1,1,1.6,1.4l0.1-0.4C392.3,93.7,390.6,92.5,392.7,94.7z"/>
					<path fill="#255875" d="M364.9,70.3c0,0.4,0.6,0.9,1.7,1.6c0.5,0.3,1.1,0.7,1.8,1.1c0.6,0.4,1.3,0.8,2,1.3
						c-0.2-0.1-0.3-0.2-0.5-0.3c0.7-0.1,0.2-0.6-0.8-1.3C368.2,71.9,366.6,71.2,364.9,70.3z"/>
					<path fill="#255875" d="M371.1,74.7c0.8,0.6,1.7,1.2,2.6,1.8C374.1,76.4,372.6,75.7,371.1,74.7z"/>
					<path fill="#255875" d="M335.3,52.4c1.4,0.8,1.3-0.4,2,0.2c1,0-1.6-0.9-3.3-1.3c-0.9-0.2-1.6-0.3-1.6-0.2
						c0,0.1,0.2,0.2,0.7,0.4C333.6,51.7,334.3,51.9,335.3,52.4z"/>
					<polygon fill="#255875" points="366,73.6 365.5,72.3 363.6,71.8 					"/>
					<path fill="#255875" d="M343.6,60l4.6,2.6c0-0.2,0.6,0.1,1.4,0.4C346.8,61.5,343.6,59.7,343.6,60z"/>
					<path fill="#255875" d="M349.7,63c1.5,0.8,2.9,1.7,3.8,2C352.6,64.6,350.9,63.6,349.7,63z"/>
					<path fill="#255875" d="M359.8,69.9c0,0-0.3-0.2-0.6-0.5c-0.2-0.1-0.3-0.2-0.4-0.3s-0.2-0.2-0.2-0.2l-3.2-1.9
						c0,0,1.1,0.7,2.2,1.4c0.6,0.3,1.1,0.7,1.5,1C359.5,69.7,359.8,69.9,359.8,69.9z"/>
					<path fill="#255875" d="M289.7,41.5l-5.8-0.8c-0.6,0.2,0.9,0.6,3.1,0.9C288.4,41.7,290.6,41.9,289.7,41.5z"/>
					<path fill="#255875" d="M306.2,47.8c-1.4-0.6-1.5-0.8-2.3-1.3l-0.4,0.9L306.2,47.8z"/>
					<path fill="#255875" d="M289.8,44.1c-0.6,0.2-8.3-0.7-1.2,0.6c0.3-0.1,1.9,0.1,2.7,0.1c0.4,0.1,0.7,0.1,0.5-0.1
						c-0.1-0.1-0.3-0.1-0.6-0.2C290.9,44.3,290.5,44.2,289.8,44.1z"/>
					<polygon fill="#255875" points="203.7,43.7 205.2,43.3 204.6,41.7 					"/>
					<path fill="#255875" d="M135.7,76.6c5.9-3.3,0.8-1.8,6.2-4.6c0.6-0.6-0.6-0.1-1.7,0.6s-2.2,1.2-1.6,0.6
						C135.4,75.7,133.5,76.7,135.7,76.6z"/>
					<path fill="#255875" d="M138.6,73.2c0.5-0.4,1.1-0.8,1.6-1.3C139.3,72.6,138.9,72.9,138.6,73.2z"/>
					<path fill="#255875" d="M464.4,262.4c0,0,0.1-0.3,0.1-0.7c0.1-0.4,0.1-1,0.2-1.6c0.1-1.1,0.2-2.2,0.2-2.2l-0.7,2.9
						c0,0,0.1,0.4,0.1,0.8C464.3,261.9,464.4,262.4,464.4,262.4z"/>
					<path fill="#255875" d="M463.4,253.7l1.1-1.1l-0.9-2.7C463.6,251,463.7,252.9,463.4,253.7z"/>
					<path fill="#255875" d="M51.1,306.6l-0.3-0.2c-0.1,0.7,0.2,1.7,0.7,3.7L51.1,306.6z"/>
					<polygon fill="#255875" points="74.1,359.9 73.5,359.1 73.7,361.2 					"/>
					<path fill="#255875" d="M105.6,397c-0.7-0.7-1.6-1.4-2.3-2.2c-0.8-0.8-1.6-1.5-2.2-2.2C104.2,395.7,105.2,398.2,105.6,397z"/>
				</g>
			</g>
		</g>
	</g>
</g>
<circle fill="none" stroke="#255875" stroke-width="3" stroke-miterlimit="10" cx="250" cy="250" r="111.9"/>
<circle fill="none" stroke="#255875" stroke-width="2" stroke-miterlimit="10" cx="250" cy="250" r="58.1"/>
</svg>
